<svg width="10" height="10" viewBox="0 0 10 10" fill="none" xmlns="http://www.w3.org/2000/svg">
<path d="M9.63157 7.16469C9.37891 7.64688 9.25716 7.86241 8.93218 8.28797C8.47721 8.88264 7.8355 9.6252 7.04273 9.62992C6.33694 9.63542 6.15477 9.23425 5.19632 9.24133C4.23878 9.24527 4.03921 9.63778 3.3325 9.63149C2.53883 9.6252 1.9319 8.95658 1.47693 8.36269C0.204485 6.69745 0.0699168 4.74509 0.85627 3.70677C1.41285 2.9705 2.29258 2.53787 3.11921 2.53787C3.9614 2.53787 4.49052 2.93511 5.18625 2.93511C5.86183 2.93511 6.27286 2.53708 7.24687 2.53708C7.98288 2.53708 8.76099 2.88162 9.31757 3.47629C7.4977 4.33369 7.79339 6.56687 9.63157 7.16469ZM6.50721 1.8724C6.86148 1.48146 7.13062 0.930046 7.03266 0.368408C6.45503 0.402232 5.77944 0.719235 5.38489 1.12984C5.02696 1.50427 4.73036 2.05961 4.84571 2.59687C5.47644 2.61417 6.12914 2.29088 6.50721 1.8724Z" fill="white" fill-opacity="0.87"/>
</svg>
