<svg width="12" height="10" viewBox="0 0 12 10" fill="none" xmlns="http://www.w3.org/2000/svg">
<path d="M6 0C5.77267 0 5.55465 0.0916146 5.39391 0.25469C5.23316 0.417765 5.14286 0.638942 5.14286 0.869565C5.14293 1.02708 5.18517 1.18162 5.26508 1.31668C5.34498 1.45173 5.45955 1.56224 5.59654 1.63638L3.90151 4.86073L1.59542 3.48421C1.67306 3.35067 1.7141 3.19851 1.71429 3.04348C1.71429 2.81286 1.62398 2.59168 1.46323 2.4286C1.30249 2.26553 1.08447 2.17391 0.857143 2.17391C0.629814 2.17391 0.411797 2.26553 0.251051 2.4286C0.0903059 2.59168 0 2.81286 0 3.04348C0 3.2741 0.0903059 3.49528 0.251051 3.65835C0.411797 3.82143 0.629814 3.91304 0.857143 3.91304C0.885669 3.91279 0.914164 3.91109 0.942522 3.90795L1.28571 7.3913H2.57143H8.14286H9.42857H10.7143L11.0575 3.9088C11.0859 3.91165 11.1143 3.91307 11.1429 3.91304C11.3702 3.91304 11.5882 3.82143 11.7489 3.65835C11.9097 3.49528 12 3.2741 12 3.04348C12 2.81286 11.9097 2.59168 11.7489 2.4286C11.5882 2.26553 11.3702 2.17391 11.1429 2.17391C10.9155 2.17391 10.6975 2.26553 10.5368 2.4286C10.376 2.59168 10.2857 2.81286 10.2857 3.04348C10.2859 3.19851 10.3269 3.35067 10.4046 3.48421L8.09849 4.86073L6.40346 1.63638C6.54045 1.56224 6.65502 1.45173 6.73492 1.31668C6.81483 1.18162 6.85707 1.02708 6.85714 0.869565C6.85714 0.638942 6.76684 0.417765 6.60609 0.25469C6.44535 0.0916146 6.22733 0 6 0ZM1.28571 8.26087V9.13043C1.28571 9.61087 1.66929 10 2.14286 10H9.85714C10.3307 10 10.7143 9.61087 10.7143 9.13043V8.26087H1.28571Z" fill="#171717"/>
</svg>
