<svg width="15" height="20" viewBox="0 0 15 20" fill="none" xmlns="http://www.w3.org/2000/svg">
<path d="M0 13.6057V1.08763C0 0.592124 0.358259 0.193481 0.803572 0.193481H11.7857C13.5603 0.193481 15 1.7955 15 3.77008V15.6921C15 17.6667 13.5603 19.2687 11.7857 19.2687H0.803572C0.358259 19.2687 0 18.8701 0 18.3745V17.7784C0 17.499 0.117188 17.2457 0.297992 17.0818C0.438617 16.508 0.438617 14.8725 0.297992 14.2987C0.117188 14.1385 0 13.8852 0 13.6057ZM10.7143 5.18582C10.7143 5.06288 10.6239 4.96229 10.5134 4.96229H3.41518C3.30469 4.96229 3.21429 5.06288 3.21429 5.18582V5.93095C3.21429 6.05389 3.30469 6.15449 3.41518 6.15449H10.5134C10.6239 6.15449 10.7143 6.05389 10.7143 5.93095V5.18582ZM10.7143 7.57023C10.7143 7.44728 10.6239 7.34669 10.5134 7.34669H3.41518C3.30469 7.34669 3.21429 7.44728 3.21429 7.57023V8.31535C3.21429 8.4383 3.30469 8.53889 3.41518 8.53889H10.5134C10.6239 8.53889 10.7143 8.4383 10.7143 8.31535V7.57023ZM2.22991 16.8843H11.7857C12.3783 16.8843 12.8571 16.3515 12.8571 15.6921C12.8571 15.0364 12.375 14.4999 11.7857 14.4999H2.22991C2.29353 15.137 2.29353 16.2472 2.22991 16.8843Z" fill="#333333"/>
</svg>
