<svg width="19" height="19" viewBox="0 0 19 19" fill="none" xmlns="http://www.w3.org/2000/svg">
<path d="M12.3499 0.475V0.43605C11.4503 0.153425 10.4932 0 9.49995 0C4.25313 0 0 4.25315 0 9.49999C0 9.82062 0.0170998 10.1374 0.0479747 10.45H12.3499V0.475Z" fill="#3F51B5"/>
<path d="M12.3501 3.32502H16.7106C16.256 2.79492 15.7425 2.31945 15.1825 1.90002H12.3501V3.32502Z" fill="white" fill-opacity="0.6"/>
<path d="M18.952 10.45H12.3501H0.0480957C0.0965455 10.9383 0.19202 11.4114 0.31172 11.875H18.6889C18.8081 11.4114 18.9036 10.9383 18.952 10.45Z" fill="white" fill-opacity="0.6"/>
<path d="M16.2788 16.15H2.72144C3.25676 16.6958 3.86048 17.1708 4.5136 17.575H14.4867C15.1398 17.1708 15.7435 16.6958 16.2788 16.15Z" fill="white" fill-opacity="0.6"/>
<path d="M18.2043 13.3H0.795654C1.01368 13.7988 1.27303 14.2752 1.5699 14.725H17.4301C17.7269 14.2752 17.9858 13.7988 18.2043 13.3Z" fill="white" fill-opacity="0.6"/>
<path d="M12.3501 6.175H18.3902C18.2044 5.6791 17.9812 5.20267 17.719 4.75H12.3501V6.175Z" fill="white" fill-opacity="0.6"/>
<path d="M12.3501 9.02497H18.9763C18.9521 8.54048 18.9036 8.06263 18.8096 7.59998H12.3501V9.02497Z" fill="white" fill-opacity="0.6"/>
<path d="M12.3501 1.89997H15.183C14.3646 1.28723 13.4488 0.799875 12.456 0.474976H12.3501V1.89997Z" fill="#F44336"/>
<path d="M12.3501 4.74995H17.719C17.4259 4.2436 17.0891 3.7667 16.7111 3.32495H12.3501V4.74995Z" fill="#F44336"/>
<path d="M12.3501 7.60005H18.8091C18.7094 7.1089 18.5621 6.6358 18.3897 6.17505H12.3501V7.60005Z" fill="#F44336"/>
<path d="M12.3501 10.45H18.9521C18.983 10.1375 19.0001 9.82065 19.0001 9.50002C19.0001 9.33947 18.9839 9.1832 18.9763 9.02502H12.3501V10.45Z" fill="#F44336"/>
<path d="M18.6885 11.875H0.311768C0.438117 12.3657 0.596291 12.8435 0.796265 13.3H18.2045C18.4039 12.8435 18.5621 12.3657 18.6885 11.875Z" fill="#F44336"/>
<path d="M17.4302 14.725H1.57007C1.90779 15.237 2.29349 15.7139 2.72146 16.15H16.2793C16.7068 15.7139 17.0925 15.237 17.4302 14.725Z" fill="#F44336"/>
<path d="M4.51343 17.575C5.96407 18.4727 7.66836 19 9.49995 19C11.3315 19 13.0358 18.4727 14.4865 17.575H4.51343Z" fill="#F44336"/>
<path d="M2.96884 4.27502L3.18972 4.74432L3.68134 4.81842L3.32509 5.18417L3.41059 5.70002L2.96884 5.45682L2.5271 5.70002L2.6126 5.18417L2.25635 4.81842L2.74797 4.74432L2.96884 4.27502Z" fill="white" fill-opacity="0.87"/>
<path d="M4.86875 4.27502L5.08962 4.74432L5.58124 4.81842L5.22499 5.18417L5.31049 5.70002L4.86875 5.45682L4.427 5.70002L4.5125 5.18417L4.15625 4.81842L4.64787 4.74432L4.86875 4.27502Z" fill="white" fill-opacity="0.87"/>
<path d="M1.06878 5.45675L1.51053 5.69995L1.42503 5.1841L1.78128 4.81835L1.28966 4.74425L1.28776 4.7395C1.13101 5.0093 0.987083 5.28718 0.856934 5.57313L1.06878 5.45675Z" fill="white" fill-opacity="0.87"/>
<path d="M6.76865 4.27502L6.98952 4.74432L7.48115 4.81842L7.1249 5.18417L7.2104 5.70002L6.76865 5.45682L6.3269 5.70002L6.4124 5.18417L6.05615 4.81842L6.54777 4.74432L6.76865 4.27502Z" fill="white" fill-opacity="0.87"/>
<path d="M8.6688 4.27502L8.88967 4.74432L9.38129 4.81842L9.02504 5.18417L9.11054 5.70002L8.6688 5.45682L8.22705 5.70002L8.31255 5.18417L7.9563 4.81842L8.44792 4.74432L8.6688 4.27502Z" fill="white" fill-opacity="0.87"/>
<path d="M10.45 4.27502L10.6709 4.74432L11.1625 4.81842L10.8063 5.18417L10.8918 5.70002L10.45 5.45682L10.0083 5.70002L10.0938 5.18417L9.73755 4.81842L10.2292 4.74432L10.45 4.27502Z" fill="white" fill-opacity="0.87"/>
<path d="M2.96884 8.07495L3.18972 8.54425L3.68134 8.61835L3.32509 8.9841L3.41059 9.49995L2.96884 9.25675L2.5271 9.49995L2.6126 8.9841L2.25635 8.61835L2.74797 8.54425L2.96884 8.07495Z" fill="white" fill-opacity="0.87"/>
<path d="M4.86875 8.07495L5.08962 8.54425L5.58124 8.61835L5.22499 8.9841L5.31049 9.49995L4.86875 9.25675L4.427 9.49995L4.5125 8.9841L4.15625 8.61835L4.64787 8.54425L4.86875 8.07495Z" fill="white" fill-opacity="0.87"/>
<path d="M6.76865 8.07495L6.98952 8.54425L7.48115 8.61835L7.1249 8.9841L7.2104 9.49995L6.76865 9.25675L6.3269 9.49995L6.4124 8.9841L6.05615 8.61835L6.54777 8.54425L6.76865 8.07495Z" fill="white" fill-opacity="0.87"/>
<path d="M1.0687 8.07495L1.28957 8.54425L1.78119 8.61835L1.42495 8.9841L1.51045 9.49995L1.0687 9.25675L0.62695 9.49995L0.712449 8.9841L0.356201 8.61835L0.847824 8.54425L1.0687 8.07495Z" fill="white" fill-opacity="0.87"/>
<path d="M8.6688 8.07495L8.88967 8.54425L9.38129 8.61835L9.02504 8.9841L9.11054 9.49995L8.6688 9.25675L8.22705 9.49995L8.31255 8.9841L7.9563 8.61835L8.44792 8.54425L8.6688 8.07495Z" fill="white" fill-opacity="0.87"/>
<path d="M10.45 8.07495L10.6709 8.54425L11.1625 8.61835L10.8063 8.9841L10.8918 9.49995L10.45 9.25675L10.0083 9.49995L10.0938 8.9841L9.73755 8.61835L10.2292 8.54425L10.45 8.07495Z" fill="white" fill-opacity="0.87"/>
<path d="M3.44394 6.17505L3.66482 6.64435L4.15644 6.71845L3.80019 7.0842L3.88569 7.60005L3.44394 7.35685L3.00219 7.60005L3.08769 7.0842L2.73145 6.71845L3.22307 6.64435L3.44394 6.17505Z" fill="white" fill-opacity="0.87"/>
<path d="M5.34384 6.17505L5.56472 6.64435L6.05634 6.71845L5.70009 7.0842L5.78559 7.60005L5.34384 7.35685L4.9021 7.60005L4.9876 7.0842L4.63135 6.71845L5.12297 6.64435L5.34384 6.17505Z" fill="white" fill-opacity="0.87"/>
<path d="M1.54404 6.17505L1.76491 6.64435L2.25654 6.71845L1.90029 7.0842L1.98579 7.60005L1.54404 7.35685L1.10229 7.60005L1.18779 7.0842L0.831543 6.71845L1.32317 6.64435L1.54404 6.17505Z" fill="white" fill-opacity="0.87"/>
<path d="M7.24399 6.17505L7.46486 6.64435L7.95649 6.71845L7.60024 7.0842L7.68574 7.60005L7.24399 7.35685L6.80224 7.60005L6.88774 7.0842L6.53149 6.71845L7.02312 6.64435L7.24399 6.17505Z" fill="white" fill-opacity="0.87"/>
<path d="M9.14389 6.17505L9.36477 6.64435L9.85639 6.71845L9.50014 7.0842L9.58564 7.60005L9.14389 7.35685L8.70214 7.60005L8.78764 7.0842L8.4314 6.71845L8.92302 6.64435L9.14389 6.17505Z" fill="white" fill-opacity="0.87"/>
<path d="M10.9251 6.17505L11.146 6.64435L11.6376 6.71845L11.2814 7.0842L11.3669 7.60005L10.9251 7.35685L10.4834 7.60005L10.5689 7.0842L10.2126 6.71845L10.7043 6.64435L10.9251 6.17505Z" fill="white" fill-opacity="0.87"/>
<path d="M3.44394 2.375L3.66482 2.8443L4.15644 2.9184L3.80019 3.28415L3.88569 3.8L3.44394 3.5568L3.00219 3.8L3.08769 3.28415L2.73145 2.9184L3.22307 2.8443L3.44394 2.375Z" fill="white" fill-opacity="0.87"/>
<path d="M5.34384 2.375L5.56472 2.8443L6.05634 2.9184L5.70009 3.28415L5.78559 3.8L5.34384 3.5568L4.9021 3.8L4.9876 3.28415L4.63135 2.9184L5.12297 2.8443L5.34384 2.375Z" fill="white" fill-opacity="0.87"/>
<path d="M7.24399 2.375L7.46486 2.8443L7.95649 2.9184L7.60024 3.28415L7.68574 3.8L7.24399 3.5568L6.80224 3.8L6.88774 3.28415L6.53149 2.9184L7.02312 2.8443L7.24399 2.375Z" fill="white" fill-opacity="0.87"/>
<path d="M9.14389 2.375L9.36477 2.8443L9.85639 2.9184L9.50014 3.28415L9.58564 3.8L9.14389 3.5568L8.70214 3.8L8.78764 3.28415L8.4314 2.9184L8.92302 2.8443L9.14389 2.375Z" fill="white" fill-opacity="0.87"/>
<path d="M10.9251 2.375L11.146 2.8443L11.6376 2.9184L11.2814 3.28415L11.3669 3.8L10.9251 3.5568L10.4834 3.8L10.5689 3.28415L10.2126 2.9184L10.7043 2.8443L10.9251 2.375Z" fill="white" fill-opacity="0.87"/>
<path d="M5.3105 1.90003L5.225 1.38418L5.58125 1.01843L5.31952 0.979004C5.03975 1.11628 4.76853 1.26685 4.5049 1.43025L4.427 1.90003L4.86875 1.65683L5.3105 1.90003Z" fill="white" fill-opacity="0.87"/>
<path d="M6.76865 0.474976L6.98952 0.944275L7.48115 1.01838L7.1249 1.38412L7.2104 1.89997L6.76865 1.65677L6.3269 1.89997L6.4124 1.38412L6.05615 1.01838L6.54777 0.944275L6.76865 0.474976Z" fill="white" fill-opacity="0.87"/>
<path d="M8.6688 0.474976L8.88967 0.944275L9.38129 1.01838L9.02504 1.38412L9.11054 1.89997L8.6688 1.65677L8.22705 1.89997L8.31255 1.38412L7.9563 1.01838L8.44792 0.944275L8.6688 0.474976Z" fill="white" fill-opacity="0.87"/>
<path d="M10.45 0.474976L10.6709 0.944275L11.1625 1.01885L10.8063 1.3846L10.8918 1.89997L10.45 1.65677L10.0083 1.89997L10.0938 1.38412L9.73755 1.01838L10.2292 0.944275L10.45 0.474976Z" fill="white" fill-opacity="0.87"/>
</svg>
