<svg width="12" height="11" viewBox="0 0 12 11" fill="none" xmlns="http://www.w3.org/2000/svg">
<path d="M5.87454 0C5.8338 0 5.79284 0.00911676 5.75581 0.0277018L0.392101 2.71764C0.30807 2.75995 0.255415 2.84351 0.255415 2.93448V3.42356C0.255415 3.55855 0.36984 3.6681 0.510829 3.6681H11.2382C11.3795 3.6681 11.4937 3.55855 11.4937 3.42356V2.93448C11.4937 2.84351 11.4413 2.75995 11.357 2.71764L5.99327 0.0277018C5.95623 0.00911676 5.91528 0 5.87454 0ZM5.87454 1.46724C6.2975 1.46724 6.64078 1.79566 6.64078 2.20086C6.64078 2.60606 6.2975 2.93448 5.87454 2.93448C5.45132 2.93448 5.10829 2.60606 5.10829 2.20086C5.10829 1.79566 5.45132 1.46724 5.87454 1.46724ZM1.53249 4.15718C1.3915 4.15718 1.27707 4.26673 1.27707 4.40172V7.82528H2.80956V4.40172C2.80956 4.26673 2.69514 4.15718 2.55415 4.15718H1.53249ZM4.08663 4.15718C3.94565 4.15718 3.83122 4.26673 3.83122 4.40172V7.82528H5.36371V4.40172C5.36371 4.26673 5.24928 4.15718 5.10829 4.15718H4.08663ZM6.64078 4.15718C6.49954 4.15718 6.38537 4.24492 6.38537 4.353V6.70813C6.54347 6.64113 6.71729 6.60258 6.90118 6.60258H7.91785V4.353C7.91785 4.24492 7.80368 4.15718 7.66244 4.15718H6.64078ZM9.19493 4.15718C9.05368 4.15718 8.93951 4.23053 8.93951 4.32052V6.60258H10.472V4.32052C10.472 4.23053 10.3578 4.15718 10.2166 4.15718H9.19493ZM6.8962 7.09596C6.49423 7.09596 6.13444 7.39326 6.13444 7.79232V10.3036C6.13444 10.6884 6.47065 11 6.87275 11H11.2617C11.6635 11 12.0004 10.6881 12 10.3027V7.79232C12 7.39342 11.6403 7.09596 11.2382 7.09596H6.8962ZM10.1288 8.06982H10.7998C10.8925 8.06982 10.9674 8.1355 10.9674 8.21645V8.65681C10.9674 8.73775 10.8925 8.80344 10.7998 8.80344H10.1288C10.0361 8.80344 9.96117 8.73775 9.96117 8.65681V8.21645C9.96117 8.1355 10.0361 8.06982 10.1288 8.06982ZM0.766244 8.31436C0.625255 8.31436 0.510829 8.42367 0.510829 8.5589V9.04798H0.255415C0.114426 9.04798 0 9.15729 0 9.29252V10.0261C0 10.1614 0.114426 10.2707 0.255415 10.2707H5.61912V8.31436H0.766244ZM7.40703 9.29252H7.66244C7.80368 9.29252 7.91785 9.40207 7.91785 9.53706C7.91785 9.67204 7.80368 9.7816 7.66244 9.7816H7.40703C7.26578 9.7816 7.15161 9.67204 7.15161 9.53706C7.15161 9.40207 7.26578 9.29252 7.40703 9.29252ZM8.42868 9.29252H8.6841C8.82534 9.29252 8.93951 9.40207 8.93951 9.53706C8.93951 9.67204 8.82534 9.7816 8.6841 9.7816H8.42868C8.28744 9.7816 8.17327 9.67204 8.17327 9.53706C8.17327 9.40207 8.28744 9.29252 8.42868 9.29252ZM9.45034 9.29252H9.70576C9.847 9.29252 9.96117 9.40207 9.96117 9.53706C9.96117 9.67204 9.847 9.7816 9.70576 9.7816H9.45034C9.3091 9.7816 9.19493 9.67204 9.19493 9.53706C9.19493 9.40207 9.3091 9.29252 9.45034 9.29252ZM10.472 9.29252H10.7274C10.8687 9.29252 10.9828 9.40207 10.9828 9.53706C10.9828 9.67204 10.8687 9.7816 10.7274 9.7816H10.472C10.3308 9.7816 10.2166 9.67204 10.2166 9.53706C10.2166 9.40207 10.3308 9.29252 10.472 9.29252Z" fill="#8F8F8F"/>
</svg>
