<svg width="11" height="14" viewBox="0 0 11 14" fill="none" xmlns="http://www.w3.org/2000/svg">
<path d="M4.4 0C4.25413 0 4.11424 0.0567306 4.01109 0.157712C3.90795 0.258693 3.85 0.395653 3.85 0.538462C3.85 3.26146 0 5.38462 0 9.15385C0 12.0173 3.16992 13.8686 4.28613 13.9884C4.32357 13.9962 4.36174 14 4.4 14C4.54587 14 4.68576 13.9433 4.78891 13.8423C4.89205 13.7413 4.95 13.6043 4.95 13.4615C4.94996 13.3816 4.93172 13.3026 4.8966 13.2304C4.86148 13.1581 4.81036 13.0945 4.74697 13.044C4.74697 13.0437 4.74697 13.0433 4.74697 13.043C4.24647 12.6456 3.3 11.4927 3.3 10.4401C3.3 8.71213 4.95 8.07692 4.95 8.07692C4.00895 10.6831 7.09249 10.998 7.71289 13.5783H7.71396C7.74106 13.6977 7.80892 13.8046 7.90636 13.8813C8.0038 13.9579 8.125 13.9998 8.25 14C8.36583 13.9997 8.47861 13.9637 8.57227 13.8969C8.58218 13.8899 8.59186 13.8825 8.60127 13.8749C8.69078 13.8179 11 12.3227 11 9.15385C11 7.86013 10.3391 5.63796 9.86348 4.6537C9.86308 4.65288 9.86279 4.65135 9.8624 4.65054C9.86205 4.64984 9.86169 4.64914 9.86133 4.64844C9.82083 4.54799 9.75041 4.46179 9.65923 4.40102C9.56804 4.34026 9.4603 4.30774 9.35 4.30769C9.22155 4.30781 9.09719 4.35194 8.9985 4.43243C8.89981 4.51292 8.833 4.62468 8.80967 4.74835C8.80967 4.74905 8.80967 4.74975 8.80967 4.75045C8.80832 4.75634 8.5557 5.8547 7.7 6.46154C7.7 3.92451 5.8291 1.30395 4.84258 0.219802C4.82777 0.200171 4.81162 0.181548 4.79424 0.164063C4.74308 0.112288 4.68182 0.0710907 4.6141 0.0429099C4.54639 0.014729 4.47358 0.000137759 4.4 0Z" fill="#1EC876"/>
</svg>
