<svg width="14" height="14" viewBox="0 0 14 14" fill="none" xmlns="http://www.w3.org/2000/svg">
<path d="M14 14C14 14 8.75784 14.0125 4.67085 9.92555C4.48215 9.73686 4.31785 9.53143 4.1691 9.31889C3.44448 9.37683 2.33529 9.3579 1.76753 8.78977C0.44218 7.46442 0 5.2547 0 5.2547L2.91928 5.67207V4.67085L4.67085 2.91928H5.67207L5.2547 0C5.2547 0 7.46442 0.44218 8.78977 1.76753C9.3579 2.33529 9.37683 3.44448 9.31889 4.1691C9.53144 4.31785 9.73686 4.48215 9.92555 4.67085C14.0125 8.75784 14 14 14 14ZM9.3417 10.5094C9.98686 10.5094 10.5094 9.98686 10.5094 9.3417C10.5094 8.69653 9.98686 8.17398 9.3417 8.17398C8.69654 8.17398 8.17398 8.69653 8.17398 9.3417C8.17398 9.98686 8.69654 10.5094 9.3417 10.5094ZM2.45174 4.08927C2.22987 4.03089 2.01962 3.91943 1.84622 3.74603C1.04867 2.94848 1.17569 1.17684 1.17569 1.17684C1.17569 1.17684 2.93569 1.0393 3.74375 1.84736C3.91715 2.02076 4.02861 2.23215 4.08699 2.45402L3.82015 2.72086C3.79388 2.68349 3.77761 2.64011 3.74375 2.60683C3.17449 2.03757 2.3206 2.32174 2.3206 2.32174C2.3206 2.32174 2.03584 3.17563 2.60569 3.74489C2.63955 3.77875 2.68121 3.79443 2.71858 3.82129L2.45174 4.08927Z" fill="#F44336"/>
</svg>
