<svg width="15" height="18" viewBox="0 0 15 18" fill="none" xmlns="http://www.w3.org/2000/svg">
<path d="M0.11012 13.4571L7.2339 17.1321C7.31792 17.1695 7.40839 17.1887 7.49982 17.1887C7.59125 17.1887 7.68172 17.1695 7.76574 17.1321L14.8899 13.4571C15.0349 13.3819 15.0349 13.2587 14.8899 13.1832L13.1838 12.3048C13.0997 12.2675 13.0091 12.2482 12.9175 12.2482C12.826 12.2482 12.7354 12.2675 12.6512 12.3048L7.76574 14.822C7.68177 14.8595 7.59128 14.8789 7.49982 14.8789C7.40836 14.8789 7.31787 14.8595 7.2339 14.822L2.3484 12.3048C2.26432 12.2674 2.17379 12.2482 2.0823 12.2482C1.99081 12.2482 1.90028 12.2674 1.8162 12.3048L0.11012 13.1851C-0.036706 13.2587 -0.036706 13.3819 0.11012 13.4571ZM0.11012 8.32773L1.8162 7.44748C1.90028 7.41011 1.99081 7.39083 2.0823 7.39083C2.17379 7.39083 2.26432 7.41011 2.3484 7.44748L7.2339 9.96763C7.31796 10.0048 7.40842 10.024 7.49982 10.024C7.59122 10.024 7.68168 10.0048 7.76574 9.96763L12.6512 7.44748C12.7354 7.41012 12.826 7.39085 12.9175 7.39085C13.0091 7.39085 13.0997 7.41012 13.1838 7.44748L14.8899 8.32773C15.0349 8.40287 15.0349 8.52647 14.8899 8.60236L7.76574 12.2766C7.68172 12.314 7.59125 12.3333 7.49982 12.3333C7.40839 12.3333 7.31792 12.314 7.2339 12.2766L0.11012 8.60236C-0.036706 8.52647 -0.036706 8.40324 0.11012 8.32773ZM14.8899 4.05534L7.7661 7.44748C7.59517 7.51699 7.4052 7.51699 7.23426 7.44748L0.11012 4.05534C-0.034893 3.98546 -0.034893 3.87163 0.11012 3.80212L7.23426 0.410363C7.40506 0.3401 7.5953 0.3401 7.7661 0.410363L14.8899 3.80212C15.0367 3.87163 15.0367 3.98546 14.8899 4.05534Z" fill="#20FF94"/>
</svg>
