<svg width="16" height="16" viewBox="0 0 16 16" fill="none" xmlns="http://www.w3.org/2000/svg">
<circle cx="8" cy="8" r="8" fill="#CEE5FF"/>
<path d="M13 9.24661L12.5233 9.60221L12.0478 9.27655C12.0478 9.24234 12.0478 9.20599 12.0457 9.16964C12.0457 9.13542 12.0457 9.09907 12.0435 9.06272C12.013 8.22024 11.7957 7.31789 11.3609 6.65716C11.0261 6.15039 10.5978 5.90877 10.1196 5.90877C9.61739 5.90877 9.2087 6.20385 8.75652 6.84533C8.74348 6.86458 8.72826 6.88382 8.71522 6.9052C8.70652 6.91589 8.7 6.92659 8.6913 6.93942C8.66957 6.97149 8.64783 7.00356 8.62609 7.03778C8.43043 7.33713 8.22609 7.68567 8.00435 8.07056C7.98478 8.10691 7.96304 8.14326 7.94348 8.17962C7.93696 8.18817 7.93043 8.19886 7.92609 8.20741L7.88043 8.28653L7.61087 8.75481C6.97826 9.85602 6.81739 10.1083 6.50217 10.521C5.94783 11.2459 5.47391 11.5217 4.85 11.5217C4.11087 11.5217 3.6413 11.2074 3.35217 10.7327C3.11522 10.3478 3 9.84105 3 9.26372L4.08043 9.30007C4.08043 9.67641 4.16304 9.96294 4.27391 10.1383C4.41739 10.3649 4.62826 10.4526 4.84783 10.4526C5.12826 10.4526 5.38913 10.3949 5.88478 9.71917C6.28261 9.17819 6.75217 8.42124 7.06739 7.9444L7.36522 7.49751L7.42826 7.39914L7.49348 7.30292L7.60217 7.13828C7.76739 6.89024 7.94565 6.62723 8.13696 6.37491C8.1587 6.34498 8.18043 6.31504 8.20435 6.2851C8.22609 6.25517 8.25 6.22523 8.27174 6.19743C8.46739 5.95153 8.67391 5.72274 8.89565 5.53457C9.29783 5.19031 9.73043 5 10.1674 5C10.9 5 11.5978 5.41696 12.1326 6.19957C12.6783 6.99929 12.963 7.99572 12.9957 9.03279C12.9978 9.067 12.9978 9.10335 12.9978 9.1397C13 9.17605 13 9.21026 13 9.24661Z" fill="#0081FB"/>
<path d="M3.86957 6.27356C4.3636 5.52409 5.07699 5 5.89496 5C6.36882 5 6.83964 5.13792 7.3315 5.53307C7.86937 5.965 8.44281 6.67619 9.15816 7.8484L9.41461 8.269C10.0338 9.28382 10.386 9.80577 10.5923 10.0521C10.8574 10.3684 11.023 10.4526 11.2643 10.4526C11.8761 10.4526 12.049 9.90948 12.049 9.27634L13 9.24704C13 9.90884 12.8674 10.3951 12.6418 10.7791C12.424 11.1505 11.9991 11.5217 11.2844 11.5217C10.8401 11.5217 10.4465 11.4268 10.0113 11.0229C9.67671 10.7128 9.28552 10.162 8.98458 9.667L8.08937 8.19608C7.64025 7.45795 7.22823 6.90734 6.98978 6.65823C6.73332 6.39009 6.41655 6.06935 5.89041 6.06935C5.4645 6.06935 5.09001 6.36058 4.78734 6.81026L3.86957 6.27356Z" fill="url(#paint0_linear_108_471)"/>
<path d="M6.03889 6.054C5.58959 6.054 5.19419 6.34111 4.87494 6.78442C4.42335 7.41092 4.14675 8.34392 4.14675 9.24003C4.14675 9.60956 4.14606 9.8876 4.26143 10.0592L3.38072 10.6522C3.13165 10.2715 3 9.78515 3 9.216C3 8.18097 3.31077 7.08881 3.89859 6.25552C4.42014 5.51667 5.18043 5 6.04348 5L6.03889 6.054Z" fill="url(#paint1_linear_108_471)"/>
<path opacity="0.05" d="M7.46808 7.22462L7.40694 7.30472L7.34784 7.38661C7.49254 7.56995 7.65762 7.79068 7.83086 8.04345L7.87365 7.97759C7.87773 7.97047 7.88384 7.96157 7.88996 7.95445C7.9083 7.92419 7.92868 7.89393 7.94702 7.86366C7.77787 7.62157 7.61482 7.40619 7.46808 7.22462ZM8.13452 6.3773C8.11211 6.40223 8.09173 6.42715 8.07134 6.45207C8.22012 6.61405 8.37094 6.7974 8.5299 7.00389C8.55028 6.97541 8.57067 6.94871 8.59105 6.92201C8.5992 6.91133 8.60531 6.90243 8.61346 6.89353C8.62569 6.87572 8.63996 6.8597 8.65219 6.84368C8.4973 6.64431 8.34648 6.46453 8.1977 6.30432C8.17732 6.32746 8.1549 6.35238 8.13452 6.3773Z" fill="black"/>
<path opacity="0.07" d="M7.41519 7.23866L7.34784 7.32699C7.50723 7.52721 7.68683 7.76668 7.87991 8.04345C7.90011 8.01008 7.92256 7.97671 7.94277 7.94334C7.75643 7.67639 7.57683 7.43888 7.41519 7.23866ZM8.07971 6.38676C8.2436 6.56539 8.40973 6.76757 8.58484 6.99526C8.60729 6.96386 8.62974 6.93441 8.65219 6.90497C8.47932 6.6812 8.31095 6.48098 8.14931 6.30432C8.12461 6.3318 8.10216 6.35928 8.07971 6.38676Z" fill="black"/>
<defs>
<linearGradient id="paint0_linear_108_471" x1="11.9811" y1="8.26087" x2="5.73874" y2="8.26087" gradientUnits="userSpaceOnUse">
<stop stop-color="#0081FB"/>
<stop offset="0.995" stop-color="#0064E1"/>
</linearGradient>
<linearGradient id="paint1_linear_108_471" x1="4.52174" y1="9.92639" x2="4.52174" y2="5.74033" gradientUnits="userSpaceOnUse">
<stop stop-color="#0081FB"/>
<stop offset="0.995" stop-color="#0064E1"/>
</linearGradient>
</defs>
</svg>
