<svg width="16" height="16" viewBox="0 0 16 16" fill="none" xmlns="http://www.w3.org/2000/svg">
<circle cx="8" cy="8" r="8" fill="#F44336"/>
<path d="M8.00835 4.21057C7.75367 4.21057 7.49899 4.21347 7.24431 4.2207C5.93333 4.25689 4.60425 4.50583 3.36842 4.95162L3.7247 5.32215C4.77126 4.92991 5.95003 4.70412 7.25962 4.66215C7.75645 4.64623 8.26025 4.64623 8.75709 4.66215C10.0667 4.70412 11.2287 4.92991 12.2753 5.32215L12.6316 4.95162C11.3958 4.50583 10.0834 4.25689 8.7724 4.2207C8.51771 4.21347 8.26303 4.21057 8.00835 4.21057ZM6.91308 5.30189C6.0558 5.29176 4.88955 5.34386 4.08097 5.69268C4.22989 5.99373 4.79492 6.3382 5.1498 6.43373C5.16928 5.84176 6.17687 5.69268 6.93118 5.69268L8 13.4737L9.06883 5.69268C9.82174 5.69268 10.8293 5.84176 10.8502 6.43373C11.2065 6.3382 11.7701 5.99373 11.919 5.69268C10.8405 5.22662 9.12867 5.29031 8.35628 5.32215L8 5.69268L7.64373 5.32215C7.45028 5.31491 7.19838 5.30478 6.91308 5.30189Z" fill="white" fill-opacity="0.87"/>
</svg>
