<svg width="18" height="14" viewBox="0 0 18 14" fill="none" xmlns="http://www.w3.org/2000/svg">
<path d="M1.38462 0C0.619615 0 0 0.6265 0 1.4V12.6C0 13.3735 0.619615 14 1.38462 14H16.6154C17.3804 14 18 13.3735 18 12.6V1.4C18 0.6265 17.3804 0 16.6154 0H1.38462ZM1.84841 4.2H3.46424L4.52704 8.32207H4.60006L5.63176 4.2H7.15159L5.41271 9.8H3.63191L1.84841 4.2ZM8.29552 4.2H9.70448V9.8H8.29552V4.2ZM11.0769 4.2H13.5027C14.6928 4.2 15.4985 4.98459 15.4985 6.18789C15.4985 7.37929 14.6505 8.15801 13.4189 8.15801H12.4859V9.8H11.0769V4.2ZM12.4859 5.29375V7.0834H13.1227C13.7216 7.0834 14.0747 6.77233 14.0747 6.19062C14.0747 5.60052 13.7256 5.29375 13.1309 5.29375H12.4859Z" fill="#FFB761"/>
</svg>
